<svg xmlns="http://www.w3.org/2000/svg" viewBox="0 0 1200 1200">
<path fill="#ffffff00" stroke="#FFF" stroke-width="80" d="M321.1 983.5 128.8 650a100.1 100.1 0 0 1 0-99.9l192.3-333.5a100 100 0 0 1 86.6-50h384.5a100 100 0 0 1 86.6 50L1071.2 550c17.8 30.9 17.8 69 0 99.9L878.9 983.5a100 100 0 0 1-86.6 50H407.8c-35.8 0-68.8-19.1-86.7-50z"></path>
<path fill="#FFF" d="M421.4 522.4H817a9 9 0 0 0 8.9-8.9v-74.1c0-49.3-40-89.3-89.3-89.3H499.1a125 125 0 0 0-125.1 125 47.4 47.4 0 0 0 47.4 47.3zM460.2 850h236.4c71.4 0 129.3-57.9 129.3-129.3a43.1 43.1 0 0 0-43.1-43.1H382.6a8.6 8.6 0 0 0-8.6 8.6v77.6a86.2 86.2 0 0 0 86.2 86.2zM391.5 512.6l295 295a50 50 0 0 0 70.7 0l51.2-51.2a50 50 0 0 0 0-70.7l-295-295a50 50 0 0 0-70.7 0l-51.2 51.2a50 50 0 0 0 0 70.7zM691.4 812.5l-173.3-134.9h38.4zM508.6 385.8l136.6 136.6h46.2z"></path>
<path fill="#585858" d="M691 813 518 678h39zM509 386l136 136h46z"></path>
</svg>
