<svg xmlns="http://www.w3.org/2000/svg" viewBox="0 0 1200 1200">
<path fill="#ffffff00" stroke="#FFF" stroke-width="80" d="M321 984 129 650a100 100 0 0 1 0-100l192-333a100 100 0 0 1 87-50h384a100 100 0 0 1 87 50l192 333c18 31 18 69 0 100L879 984a100 100 0 0 1-87 50H408c-36 0-69-20-87-50z"/>
<path fill="#FFF" d="M421 522h396a9 9 0 0 0 9-9v-74c0-49-40-89-89-89H499a125 125 0 0 0-125 125 47 47 0 0 0 47 47zm39 328h237c71 0 129-58 129-129a43 43 0 0 0-43-43H383a9 9 0 0 0-9 8v78a86 86 0 0 0 86 86zm-68-337 295 295a50 50 0 0 0 70 0l51-52a50 50 0 0 0 0-70L513 391a50 50 0 0 0-70 0l-51 51a50 50 0 0 0 0 71zm299 300L518 678h38zM509 386l136 136h46z"/>
<path fill="#585858" d="M691 813 518 678h39zM509 386l136 136h46z"/>
</svg>
